<svg width="150" height="24" viewBox="0 0 150 24" fill="none" xmlns="http://www.w3.org/2000/svg">
<path fill-rule="evenodd" clip-rule="evenodd" d="M65.5952 0.545455H0.55122V23.4546H65.5952V0.545455ZM0 0V24H66.1464V0H0Z" fill="#00094A"/>
<path d="M66.1465 0H149.269V24H66.1465V0Z" fill="#00094A"/>
<path fill-rule="evenodd" clip-rule="evenodd" d="M74.2013 10.5606L75.1702 11.5399C75.4511 11.8239 75.4511 12.2887 75.1702 12.5727L74.2013 13.5519C73.9204 13.8359 73.4605 13.8359 73.1796 13.5519L72.2107 12.5727C71.9298 12.2887 71.9298 11.8239 72.2107 11.5399L73.1796 10.5606C73.4605 10.2767 73.9197 10.2767 74.2013 10.5606Z" fill="#06A39C"/>
<path fill-rule="evenodd" clip-rule="evenodd" d="M74.2013 16.2511L75.1702 17.2303C75.4511 17.5143 75.4511 17.9791 75.1702 18.2631L74.2013 19.2423C73.9204 19.5263 73.4605 19.5263 73.1796 19.2423L72.2107 18.2631C71.9298 17.9791 71.9298 17.5143 72.2107 17.2303L73.1796 16.2511C73.4605 15.9664 73.9197 15.9664 74.2013 16.2511Z" fill="#06A39C"/>
<path fill-rule="evenodd" clip-rule="evenodd" d="M79.831 4.86972L80.7998 5.84898C81.0808 6.13296 81.0808 6.59776 80.7998 6.88174L79.831 7.861C79.55 8.14497 79.0901 8.14497 78.8092 7.861L77.8404 6.88174C77.5594 6.59776 77.5594 6.13296 77.8404 5.84898L78.8092 4.86972C79.0908 4.58574 79.55 4.58574 79.831 4.86972Z" fill="#30D2A3"/>
<path fill-rule="evenodd" clip-rule="evenodd" d="M79.831 10.5606L80.7998 11.5399C81.0808 11.8239 81.0808 12.2887 80.7998 12.5727L79.831 13.5519C79.55 13.8359 79.0901 13.8359 78.8092 13.5519L77.8404 12.5727C77.5594 12.2887 77.5594 11.8239 77.8404 11.5399L78.8092 10.5606C79.0908 10.2767 79.55 10.2767 79.831 10.5606Z" fill="#30D2A3"/>
<path fill-rule="evenodd" clip-rule="evenodd" d="M79.831 16.2511L80.7998 17.2303C81.0808 17.5143 81.0808 17.9791 80.7998 18.2631L79.831 19.2423C79.55 19.5263 79.0901 19.5263 78.8092 19.2423L77.8404 18.2631C77.5594 17.9791 77.5594 17.5143 77.8404 17.2303L78.8092 16.2511C79.0908 15.9664 79.55 15.9664 79.831 16.2511Z" fill="#06A39C"/>
<path fill-rule="evenodd" clip-rule="evenodd" d="M85.4614 4.86972L86.4303 5.84898C86.7112 6.13296 86.7112 6.59776 86.4303 6.88174L85.4614 7.861C85.1805 8.14497 84.7206 8.14497 84.4397 7.861L83.4708 6.88174C83.1899 6.59776 83.1899 6.13296 83.4708 5.84898L84.4397 4.86972C84.7206 4.58574 85.1805 4.58574 85.4614 4.86972Z" fill="#30D2A3"/>
<path fill-rule="evenodd" clip-rule="evenodd" d="M85.4614 10.5606L86.4303 11.5399C86.7112 11.8239 86.7112 12.2887 86.4303 12.5727L85.4614 13.5519C85.1805 13.8359 84.7206 13.8359 84.4397 13.5519L83.4708 12.5727C83.1899 12.2887 83.1899 11.8239 83.4708 11.5399L84.4397 10.5606C84.7206 10.2767 85.1805 10.2767 85.4614 10.5606Z" fill="#30D2A3"/>
<path fill-rule="evenodd" clip-rule="evenodd" d="M85.4614 16.2511L86.4303 17.2303C86.7112 17.5143 86.7112 17.9791 86.4303 18.2631L85.4614 19.2423C85.1805 19.5263 84.7206 19.5263 84.4397 19.2423L83.4708 18.2631C83.1899 17.9791 83.1899 17.5143 83.4708 17.2303L84.4397 16.2511C84.7206 15.9664 85.1805 15.9664 85.4614 16.2511Z" fill="#06A39C"/>
<path fill-rule="evenodd" clip-rule="evenodd" d="M74.2016 4.86972L75.1704 5.84898C75.4514 6.13296 75.4514 6.59776 75.1704 6.88174L74.2016 7.861C73.9206 8.14497 73.4608 8.14497 73.1798 7.861L72.211 6.88174C71.93 6.59776 71.93 6.13296 72.211 5.84898L73.1798 4.86972C73.4608 4.58574 73.92 4.58574 74.2016 4.86972Z" fill="#30D2A3"/>
<path fill-rule="evenodd" clip-rule="evenodd" d="M95.0807 12.0804L95.4121 12.9241C95.4518 13.0311 95.5311 13.0712 95.637 13.0311L96.5775 12.7229C96.723 12.6828 96.7362 12.5624 96.6965 12.4548L96.5245 11.8926C96.379 11.4106 96.3526 10.9153 96.3526 10.3798V8.05006C96.3526 6.24243 94.9352 5.53313 93.3723 5.53313C92.0476 5.53313 91.1474 5.89479 90.2598 6.5506C90.1672 6.61746 90.1408 6.75116 90.2334 6.85877L90.7499 7.59481C90.816 7.6884 90.9616 7.70178 91.068 7.63492C91.8101 7.1663 92.406 6.99248 93.373 6.99248C94.1679 6.99248 94.8168 7.24717 94.8168 7.87624V8.03669L92.4854 8.34486C90.8564 8.55879 89.8894 9.41581 89.8894 10.7682C89.8894 12.1339 90.949 13.0444 92.4721 13.0444C93.5317 13.0444 94.3664 12.7095 95.0152 12.0804H95.0807ZM94.8155 10.5676C94.3519 11.1967 93.6369 11.5851 92.6303 11.5851C91.7956 11.5851 91.4252 11.2368 91.4252 10.688C91.4252 10.2193 91.7565 9.85769 92.4847 9.73735L94.8161 9.34895V10.5676H94.8155ZM98.2329 3.51221C98.1139 3.51221 98.0477 3.57906 98.0477 3.6994V12.7496C98.0477 12.87 98.1139 12.9368 98.2329 12.9368H99.1337C99.2396 12.9368 99.3057 12.8833 99.3322 12.7764L99.438 12.2944L99.5306 12.281C100.074 12.8165 100.855 13.0444 101.663 13.0444C103.782 13.0444 105.385 11.5316 105.385 9.28273C105.385 7.03386 103.822 5.53441 101.663 5.53441C100.868 5.53441 100.206 5.73497 99.5835 6.25708V3.70004C99.5835 3.5797 99.5174 3.51284 99.3983 3.51284L98.2329 3.51221ZM99.5841 7.87687C100.154 7.28791 100.723 7.00649 101.664 7.00649C102.922 7.00649 103.862 7.89024 103.862 9.28273C103.862 10.6886 102.922 11.5724 101.664 11.5724C100.776 11.5724 100.154 11.2909 99.5841 10.6619V7.87687ZM106.631 5.64074C106.512 5.64074 106.445 5.70759 106.445 5.82793V9.84431C106.445 12.0664 107.65 13.0438 109.452 13.0438C110.247 13.0438 110.975 12.8165 111.598 12.2403H111.677L111.796 12.7757C111.823 12.8827 111.889 12.9362 112.008 12.9362H112.948C113.067 12.9362 113.133 12.8693 113.133 12.749V5.82857C113.133 5.70823 113.067 5.64137 112.948 5.64137H111.783C111.664 5.64137 111.598 5.70823 111.598 5.82857V10.6351C111.121 11.2642 110.352 11.5724 109.611 11.5724C108.498 11.5724 107.982 11.0235 107.982 9.75135V5.82857C107.982 5.70823 107.916 5.64137 107.797 5.64137H106.631V5.64074ZM115.28 5.66748L114.419 5.74771C114.313 5.76108 114.26 5.82793 114.26 5.92153V6.89888C114.26 7.01922 114.326 7.08607 114.445 7.08607H115.266V10.5937C115.266 12.0263 115.955 13.0438 117.545 13.0438C118.22 13.0438 118.724 12.8967 119.214 12.5752C119.333 12.5083 119.359 12.4281 119.306 12.3071L118.948 11.4501C118.909 11.3565 118.829 11.303 118.683 11.3699C118.405 11.517 118.087 11.5838 117.729 11.5838C117.16 11.5838 116.802 11.2355 116.802 10.553V7.08544H118.763C118.882 7.08544 118.948 7.01858 118.948 6.89824V5.8273C118.948 5.70696 118.882 5.6401 118.763 5.6401H116.802V4.22087C116.802 4.10053 116.71 4.03367 116.617 4.03367H115.611C115.505 4.03367 115.439 4.10053 115.426 4.22087L115.28 5.66748ZM126.353 10.8357C126.287 10.7555 126.208 10.7554 126.142 10.8223C125.453 11.3979 124.738 11.5857 123.837 11.5857C122.671 11.5857 121.85 10.9433 121.598 10.0194H127.267C127.373 10.0194 127.425 9.95256 127.425 9.83222V9.29674C127.425 7.11473 125.916 5.53441 123.77 5.53441C121.611 5.53441 119.995 7.11409 119.995 9.29674C119.995 11.452 121.571 13.0451 123.836 13.0451C124.896 13.0451 126.021 12.7369 126.975 11.9206C127.041 11.8538 127.054 11.7736 126.988 11.7067L126.353 10.8357ZM123.77 6.99312C124.816 6.99312 125.757 7.63556 125.863 8.5728H121.584C121.796 7.64893 122.697 6.99312 123.77 6.99312ZM132.221 5.53377C130.101 5.53377 128.485 7.11346 128.485 9.26873C128.485 11.424 130.101 13.0444 132.221 13.0444C133.545 13.0444 134.697 12.4555 135.373 11.331C135.426 11.2642 135.412 11.184 135.346 11.1171L134.512 10.4479C134.432 10.3811 134.366 10.3811 134.3 10.4479C133.757 11.2514 133.121 11.5724 132.221 11.5724C130.909 11.5724 130.022 10.595 130.022 9.26936C130.022 7.94373 130.896 7.00649 132.221 7.00649C133.121 7.00649 133.717 7.3414 134.26 8.09081C134.313 8.15766 134.419 8.21115 134.512 8.11755L135.346 7.47511C135.412 7.42162 135.426 7.35477 135.373 7.26117C134.738 6.16284 133.466 5.53377 132.221 5.53377ZM136.857 3.51221C136.738 3.51221 136.672 3.57906 136.672 3.6994V12.7496C136.672 12.87 136.738 12.9368 136.857 12.9368H138.022C138.141 12.9368 138.207 12.87 138.207 12.7496V7.85013C138.737 7.26117 139.36 7.00649 140.141 7.00649C141.201 7.00649 141.823 7.62219 141.823 8.90771V12.7503C141.823 12.8706 141.889 12.9375 142.009 12.9375H143.174C143.293 12.9375 143.359 12.8706 143.359 12.7503V8.85423C143.359 6.65884 142.008 5.53377 140.141 5.53377C139.399 5.53377 138.75 5.7477 138.207 6.26981V3.6994C138.207 3.57906 138.141 3.51221 138.022 3.51221H136.857Z" fill="white"/>
<path d="M91.16 19.5737C90.9576 19.5737 90.763 19.5462 90.5762 19.4911C90.3893 19.4327 90.243 19.3598 90.1371 19.2723L90.3239 18.9028C90.4329 18.9839 90.5653 19.0487 90.721 19.0973C90.8767 19.1459 91.0339 19.1702 91.1927 19.1702C91.5851 19.1702 91.7813 19.0535 91.7813 18.8202C91.7813 18.7424 91.7548 18.6808 91.7019 18.6355C91.6489 18.5901 91.582 18.5577 91.501 18.5382C91.4232 18.5155 91.3111 18.4912 91.1647 18.4653C90.9654 18.4329 90.8019 18.3956 90.6743 18.3535C90.5497 18.3114 90.4423 18.2401 90.352 18.1396C90.2616 18.0391 90.2165 17.8981 90.2165 17.7167C90.2165 17.4833 90.3099 17.2969 90.4968 17.1576C90.6836 17.015 90.9343 16.9437 91.2488 16.9437C91.4138 16.9437 91.5789 16.9648 91.7439 17.0069C91.909 17.049 92.0444 17.1057 92.1503 17.177L91.9588 17.5465C91.7564 17.4104 91.5181 17.3423 91.2441 17.3423C91.0542 17.3423 90.9094 17.3747 90.8097 17.4396C90.7101 17.5044 90.6602 17.5903 90.6602 17.6972C90.6602 17.7815 90.6883 17.8479 90.7443 17.8965C90.8004 17.9451 90.8689 17.9808 90.9498 18.0035C91.0339 18.0262 91.1507 18.0521 91.3002 18.0813C91.4995 18.1169 91.6598 18.1558 91.7813 18.1979C91.9058 18.2368 92.0117 18.3049 92.0989 18.4021C92.1861 18.4993 92.2297 18.6355 92.2297 18.8105C92.2297 19.0438 92.1332 19.2302 91.9401 19.3695C91.7501 19.5057 91.4901 19.5737 91.16 19.5737Z" fill="white"/>
<path d="M93.8504 19.5737C93.6044 19.5737 93.3833 19.517 93.1871 19.4036C92.991 19.2901 92.8368 19.1346 92.7247 18.9369C92.6157 18.7359 92.5612 18.5091 92.5612 18.2563C92.5612 18.0035 92.6157 17.7782 92.7247 17.5805C92.8368 17.3796 92.991 17.224 93.1871 17.1138C93.3833 17.0004 93.6044 16.9437 93.8504 16.9437C94.0964 16.9437 94.316 17.0004 94.509 17.1138C94.7052 17.224 94.8578 17.3796 94.9668 17.5805C95.0789 17.7782 95.135 18.0035 95.135 18.2563C95.135 18.5091 95.0789 18.7359 94.9668 18.9369C94.8578 19.1346 94.7052 19.2901 94.509 19.4036C94.316 19.517 94.0964 19.5737 93.8504 19.5737ZM93.8504 19.1654C94.0092 19.1654 94.1509 19.1281 94.2755 19.0535C94.4032 18.9758 94.5028 18.8688 94.5744 18.7327C94.6461 18.5933 94.6819 18.4345 94.6819 18.2563C94.6819 18.078 94.6461 17.9208 94.5744 17.7847C94.5028 17.6454 94.4032 17.5384 94.2755 17.4639C94.1509 17.3893 94.0092 17.352 93.8504 17.352C93.6916 17.352 93.5484 17.3893 93.4207 17.4639C93.2961 17.5384 93.1965 17.6454 93.1218 17.7847C93.0501 17.9208 93.0143 18.078 93.0143 18.2563C93.0143 18.4345 93.0501 18.5933 93.1218 18.7327C93.1965 18.8688 93.2961 18.9758 93.4207 19.0535C93.5484 19.1281 93.6916 19.1654 93.8504 19.1654Z" fill="white"/>
<path d="M96.6613 16.2923C96.3935 16.2923 96.2596 16.443 96.2596 16.7444V16.968H96.9789V17.352H96.2689V19.5445H95.8205V17.352H95.4001V16.968H95.8205V16.7395C95.8205 16.4835 95.8921 16.2809 96.0354 16.1318C96.1786 15.9827 96.3795 15.9082 96.6379 15.9082C96.7376 15.9082 96.831 15.9212 96.9182 15.9471C97.0054 15.973 97.0801 16.0103 97.1424 16.0589L97.0069 16.4138C96.9042 16.3328 96.789 16.2923 96.6613 16.2923Z" fill="white"/>
<path d="M98.7938 19.3938C98.7284 19.4522 98.6474 19.4976 98.5509 19.53C98.4544 19.5591 98.3547 19.5737 98.252 19.5737C98.0028 19.5737 97.8098 19.504 97.6727 19.3647C97.5357 19.2253 97.4672 19.026 97.4672 18.7667V17.352H97.0468V16.968H97.4672V16.4041H97.9156V16.968H98.6256V17.352H97.9156V18.7473C97.9156 18.8866 97.9483 18.9936 98.0137 19.0681C98.0822 19.1427 98.1788 19.1799 98.3033 19.1799C98.4403 19.1799 98.5571 19.1394 98.6537 19.0584L98.7938 19.3938Z" fill="white"/>
<path d="M103.036 16.968L102.112 19.5445H101.682L100.967 17.5903L100.243 19.5445H99.8135L98.8933 16.968H99.3183L100.038 19.0195L100.785 16.968H101.163L101.897 19.0292L102.635 16.968H103.036Z" fill="white"/>
<path d="M104.315 16.9437C104.658 16.9437 104.92 17.0312 105.1 17.2062C105.284 17.3812 105.376 17.6421 105.376 17.9889V19.5445H104.951V19.2042C104.876 19.3242 104.769 19.4165 104.628 19.4813C104.491 19.5429 104.328 19.5737 104.138 19.5737C103.861 19.5737 103.638 19.504 103.47 19.3647C103.305 19.2253 103.222 19.0422 103.222 18.8153C103.222 18.5885 103.302 18.407 103.461 18.2709C103.619 18.1315 103.872 18.0618 104.217 18.0618H104.927V17.9694C104.927 17.7685 104.871 17.6146 104.759 17.5076C104.647 17.4007 104.482 17.3472 104.264 17.3472C104.118 17.3472 103.974 17.3731 103.834 17.425C103.694 17.4736 103.576 17.54 103.479 17.6243L103.292 17.2743C103.42 17.1673 103.573 17.0863 103.75 17.0312C103.928 16.9729 104.116 16.9437 104.315 16.9437ZM104.213 19.214C104.384 19.214 104.532 19.1751 104.656 19.0973C104.781 19.0163 104.871 18.9028 104.927 18.757V18.3973H104.236C103.856 18.3973 103.666 18.5301 103.666 18.7959C103.666 18.9255 103.714 19.0276 103.811 19.1022C103.908 19.1767 104.041 19.214 104.213 19.214Z" fill="white"/>
<path d="M106.635 17.4007C106.713 17.2516 106.828 17.1381 106.981 17.0604C107.134 16.9826 107.319 16.9437 107.537 16.9437V17.3958C107.512 17.3926 107.478 17.3909 107.434 17.3909C107.191 17.3909 107 17.4671 106.86 17.6194C106.723 17.7685 106.654 17.9824 106.654 18.2611V19.5445H106.206V16.968H106.635V17.4007Z" fill="white"/>
<path d="M110.304 18.2709C110.304 18.3065 110.301 18.3535 110.295 18.4118H108.286C108.314 18.6387 108.409 18.8218 108.571 18.9612C108.736 19.0973 108.94 19.1654 109.183 19.1654C109.479 19.1654 109.717 19.0616 109.898 18.8542L110.145 19.1556C110.033 19.2918 109.893 19.3955 109.725 19.4668C109.56 19.5381 109.375 19.5737 109.169 19.5737C108.907 19.5737 108.675 19.5186 108.473 19.4084C108.271 19.295 108.113 19.1378 108.001 18.9369C107.892 18.7359 107.838 18.5091 107.838 18.2563C107.838 18.0067 107.891 17.7815 107.997 17.5805C108.106 17.3796 108.254 17.224 108.44 17.1138C108.63 17.0004 108.844 16.9437 109.08 16.9437C109.317 16.9437 109.527 17.0004 109.711 17.1138C109.898 17.224 110.043 17.3796 110.145 17.5805C110.251 17.7815 110.304 18.0116 110.304 18.2709ZM109.08 17.3375C108.865 17.3375 108.685 17.4055 108.538 17.5416C108.395 17.6778 108.311 17.856 108.286 18.0764H109.874C109.849 17.8593 109.764 17.6826 109.617 17.5465C109.474 17.4071 109.295 17.3375 109.08 17.3375Z" fill="white"/>
<path d="M114.517 15.9374V19.5445H114.087V19.1362C113.987 19.2788 113.861 19.3874 113.709 19.4619C113.556 19.5364 113.388 19.5737 113.204 19.5737C112.964 19.5737 112.75 19.5186 112.56 19.4084C112.37 19.2982 112.22 19.1443 112.111 18.9466C112.005 18.7457 111.952 18.5155 111.952 18.2563C111.952 17.997 112.005 17.7685 112.111 17.5708C112.22 17.3731 112.37 17.2192 112.56 17.109C112.75 16.9988 112.964 16.9437 113.204 16.9437C113.382 16.9437 113.545 16.9793 113.695 17.0506C113.844 17.1187 113.969 17.2208 114.068 17.3569V15.9374H114.517ZM113.242 19.1654C113.397 19.1654 113.539 19.1281 113.667 19.0535C113.794 18.9758 113.894 18.8688 113.966 18.7327C114.037 18.5933 114.073 18.4345 114.073 18.2563C114.073 18.078 114.037 17.9208 113.966 17.7847C113.894 17.6454 113.794 17.5384 113.667 17.4639C113.539 17.3893 113.397 17.352 113.242 17.352C113.083 17.352 112.939 17.3893 112.812 17.4639C112.687 17.5384 112.588 17.6454 112.513 17.7847C112.441 17.9208 112.405 18.078 112.405 18.2563C112.405 18.4345 112.441 18.5933 112.513 18.7327C112.588 18.8688 112.687 18.9758 112.812 19.0535C112.939 19.1281 113.083 19.1654 113.242 19.1654Z" fill="white"/>
<path d="M117.603 18.2709C117.603 18.3065 117.599 18.3535 117.593 18.4118H115.585C115.613 18.6387 115.708 18.8218 115.87 18.9612C116.035 19.0973 116.239 19.1654 116.482 19.1654C116.777 19.1654 117.016 19.0616 117.196 18.8542L117.444 19.1556C117.332 19.2918 117.192 19.3955 117.023 19.4668C116.858 19.5381 116.673 19.5737 116.468 19.5737C116.206 19.5737 115.974 19.5186 115.772 19.4084C115.569 19.295 115.412 19.1378 115.3 18.9369C115.191 18.7359 115.136 18.5091 115.136 18.2563C115.136 18.0067 115.189 17.7815 115.295 17.5805C115.404 17.3796 115.552 17.224 115.739 17.1138C115.929 17.0004 116.142 16.9437 116.379 16.9437C116.615 16.9437 116.826 17.0004 117.009 17.1138C117.196 17.224 117.341 17.3796 117.444 17.5805C117.55 17.7815 117.603 18.0116 117.603 18.2709ZM116.379 17.3375C116.164 17.3375 115.983 17.4055 115.837 17.5416C115.694 17.6778 115.61 17.856 115.585 18.0764H117.173C117.148 17.8593 117.062 17.6826 116.916 17.5465C116.773 17.4071 116.594 17.3375 116.379 17.3375Z" fill="white"/>
<path d="M120.37 16.968L119.287 19.5445H118.829L117.745 16.968H118.212L119.062 19.0341L119.931 16.968H120.37Z" fill="white"/>
<path d="M122.958 18.2709C122.958 18.3065 122.955 18.3535 122.948 18.4118H120.94C120.968 18.6387 121.063 18.8218 121.225 18.9612C121.39 19.0973 121.594 19.1654 121.837 19.1654C122.133 19.1654 122.371 19.0616 122.551 18.8542L122.799 19.1556C122.687 19.2918 122.547 19.3955 122.379 19.4668C122.214 19.5381 122.028 19.5737 121.823 19.5737C121.561 19.5737 121.329 19.5186 121.127 19.4084C120.924 19.295 120.767 19.1378 120.655 18.9369C120.546 18.7359 120.492 18.5091 120.492 18.2563C120.492 18.0067 120.544 17.7815 120.65 17.5805C120.759 17.3796 120.907 17.224 121.094 17.1138C121.284 17.0004 121.497 16.9437 121.734 16.9437C121.971 16.9437 122.181 17.0004 122.365 17.1138C122.551 17.224 122.696 17.3796 122.799 17.5805C122.905 17.7815 122.958 18.0116 122.958 18.2709ZM121.734 17.3375C121.519 17.3375 121.339 17.4055 121.192 17.5416C121.049 17.6778 120.965 17.856 120.94 18.0764H122.528C122.503 17.8593 122.418 17.6826 122.271 17.5465C122.128 17.4071 121.949 17.3375 121.734 17.3375Z" fill="white"/>
<path d="M123.58 15.9374H124.029V19.5445H123.58V15.9374Z" fill="white"/>
<path d="M125.945 19.5737C125.699 19.5737 125.478 19.517 125.282 19.4036C125.086 19.2901 124.932 19.1346 124.82 18.9369C124.711 18.7359 124.656 18.5091 124.656 18.2563C124.656 18.0035 124.711 17.7782 124.82 17.5805C124.932 17.3796 125.086 17.224 125.282 17.1138C125.478 17.0004 125.699 16.9437 125.945 16.9437C126.191 16.9437 126.411 17.0004 126.604 17.1138C126.8 17.224 126.953 17.3796 127.062 17.5805C127.174 17.7782 127.23 18.0035 127.23 18.2563C127.23 18.5091 127.174 18.7359 127.062 18.9369C126.953 19.1346 126.8 19.2901 126.604 19.4036C126.411 19.517 126.191 19.5737 125.945 19.5737ZM125.945 19.1654C126.104 19.1654 126.246 19.1281 126.37 19.0535C126.498 18.9758 126.598 18.8688 126.669 18.7327C126.741 18.5933 126.777 18.4345 126.777 18.2563C126.777 18.078 126.741 17.9208 126.669 17.7847C126.598 17.6454 126.498 17.5384 126.37 17.4639C126.246 17.3893 126.104 17.352 125.945 17.352C125.787 17.352 125.643 17.3893 125.516 17.4639C125.391 17.5384 125.291 17.6454 125.217 17.7847C125.145 17.9208 125.109 18.078 125.109 18.2563C125.109 18.4345 125.145 18.5933 125.217 18.7327C125.291 18.8688 125.391 18.9758 125.516 19.0535C125.643 19.1281 125.787 19.1654 125.945 19.1654Z" fill="white"/>
<path d="M129.163 16.9437C129.402 16.9437 129.617 16.9988 129.807 17.109C129.997 17.2192 130.145 17.3731 130.251 17.5708C130.36 17.7685 130.414 17.997 130.414 18.2563C130.414 18.5155 130.36 18.7457 130.251 18.9466C130.145 19.1443 129.997 19.2982 129.807 19.4084C129.617 19.5186 129.402 19.5737 129.163 19.5737C128.985 19.5737 128.822 19.5381 128.672 19.4668C128.526 19.3955 128.401 19.2918 128.299 19.1556V20.4877H127.85V16.968H128.28V17.3764C128.379 17.2338 128.506 17.1268 128.658 17.0555C128.811 16.981 128.979 16.9437 129.163 16.9437ZM129.125 19.1654C129.284 19.1654 129.426 19.1281 129.55 19.0535C129.678 18.9758 129.778 18.8688 129.849 18.7327C129.924 18.5933 129.961 18.4345 129.961 18.2563C129.961 18.078 129.924 17.9208 129.849 17.7847C129.778 17.6454 129.678 17.5384 129.55 17.4639C129.426 17.3893 129.284 17.352 129.125 17.352C128.97 17.352 128.828 17.3909 128.7 17.4687C128.576 17.5433 128.476 17.6486 128.401 17.7847C128.33 17.9208 128.294 18.078 128.294 18.2563C128.294 18.4345 128.33 18.5933 128.401 18.7327C128.473 18.8688 128.573 18.9758 128.7 19.0535C128.828 19.1281 128.97 19.1654 129.125 19.1654Z" fill="white"/>
<path d="M134.131 16.9437C134.442 16.9437 134.688 17.0377 134.869 17.2256C135.053 17.4136 135.145 17.6923 135.145 18.0618V19.5445H134.696V18.1153C134.696 17.8657 134.64 17.6778 134.528 17.5514C134.419 17.425 134.262 17.3618 134.056 17.3618C133.829 17.3618 133.648 17.4363 133.514 17.5854C133.38 17.7312 133.313 17.9419 133.313 18.2174V19.5445H132.865V18.1153C132.865 17.8657 132.809 17.6778 132.697 17.5514C132.588 17.425 132.431 17.3618 132.225 17.3618C131.998 17.3618 131.817 17.4363 131.683 17.5854C131.549 17.7312 131.482 17.9419 131.482 18.2174V19.5445H131.034V16.968H131.464V17.352C131.554 17.2192 131.672 17.1187 131.819 17.0506C131.965 16.9793 132.132 16.9437 132.319 16.9437C132.512 16.9437 132.683 16.9842 132.832 17.0652C132.982 17.1462 133.097 17.2645 133.178 17.4201C133.271 17.271 133.401 17.1543 133.566 17.0701C133.734 16.9858 133.922 16.9437 134.131 16.9437Z" fill="white"/>
<path d="M138.221 18.2709C138.221 18.3065 138.218 18.3535 138.211 18.4118H136.203C136.231 18.6387 136.326 18.8218 136.488 18.9612C136.653 19.0973 136.857 19.1654 137.1 19.1654C137.396 19.1654 137.634 19.0616 137.814 18.8542L138.062 19.1556C137.95 19.2918 137.81 19.3955 137.642 19.4668C137.476 19.5381 137.291 19.5737 137.086 19.5737C136.824 19.5737 136.592 19.5186 136.39 19.4084C136.187 19.295 136.03 19.1378 135.918 18.9369C135.809 18.7359 135.754 18.5091 135.754 18.2563C135.754 18.0067 135.807 17.7815 135.913 17.5805C136.022 17.3796 136.17 17.224 136.357 17.1138C136.547 17.0004 136.76 16.9437 136.997 16.9437C137.234 16.9437 137.444 17.0004 137.628 17.1138C137.814 17.224 137.959 17.3796 138.062 17.5805C138.168 17.7815 138.221 18.0116 138.221 18.2709ZM136.997 17.3375C136.782 17.3375 136.601 17.4055 136.455 17.5416C136.312 17.6778 136.228 17.856 136.203 18.0764H137.791C137.766 17.8593 137.68 17.6826 137.534 17.5465C137.391 17.4071 137.212 17.3375 136.997 17.3375Z" fill="white"/>
<path d="M140.165 16.9437C140.48 16.9437 140.729 17.0393 140.913 17.2305C141.1 17.4185 141.193 17.6956 141.193 18.0618V19.5445H140.745V18.1153C140.745 17.8657 140.687 17.6778 140.572 17.5514C140.456 17.425 140.291 17.3618 140.077 17.3618C139.834 17.3618 139.642 17.4363 139.502 17.5854C139.362 17.7312 139.292 17.9419 139.292 18.2174V19.5445H138.843V16.968H139.273V17.3569C139.363 17.224 139.485 17.1219 139.637 17.0506C139.793 16.9793 139.969 16.9437 140.165 16.9437Z" fill="white"/>
<path d="M143.415 19.3938C143.349 19.4522 143.268 19.4976 143.172 19.53C143.075 19.5591 142.976 19.5737 142.873 19.5737C142.624 19.5737 142.431 19.504 142.294 19.3647C142.157 19.2253 142.088 19.026 142.088 18.7667V17.352H141.668V16.968H142.088V16.4041H142.537V16.968H143.247V17.352H142.537V18.7473C142.537 18.8866 142.569 18.9936 142.635 19.0681C142.703 19.1427 142.8 19.1799 142.924 19.1799C143.061 19.1799 143.178 19.1394 143.275 19.0584L143.415 19.3938Z" fill="white"/>
<path d="M12.2124 3.57589H12.8879V9.14823H12.2124V8.46362C11.8759 8.98902 11.3867 9.25171 10.7449 9.25171C10.2014 9.25171 9.73812 9.05005 9.35508 8.64672C8.97204 8.23808 8.78052 7.74187 8.78052 7.15811C8.78052 6.57434 8.97204 6.08079 9.35508 5.67746C9.73812 5.26882 10.2014 5.0645 10.7449 5.0645C11.3867 5.0645 11.8759 5.3272 12.2124 5.85259V3.57589ZM10.8303 8.58303C11.2237 8.58303 11.5524 8.4477 11.8164 8.17705C12.0804 7.90108 12.2124 7.56144 12.2124 7.15811C12.2124 6.75478 12.0804 6.41778 11.8164 6.14713C11.5524 5.87116 11.2237 5.73318 10.8303 5.73318C10.4421 5.73318 10.116 5.87116 9.852 6.14713C9.58801 6.41778 9.45601 6.75478 9.45601 7.15811C9.45601 7.56144 9.58801 7.90108 9.852 8.17705C10.116 8.4477 10.4421 8.58303 10.8303 8.58303Z" fill="#00094A"/>
<path d="M14.3849 7.47652C14.4522 7.83209 14.6101 8.10806 14.8585 8.30441C15.1122 8.50077 15.4227 8.59895 15.7903 8.59895C16.3027 8.59895 16.6754 8.40525 16.9083 8.01784L17.4829 8.35218C17.105 8.95187 16.5356 9.25171 15.7747 9.25171C15.1588 9.25171 14.6567 9.05535 14.2684 8.66264C13.8854 8.26461 13.6939 7.7631 13.6939 7.15811C13.6939 6.55842 13.8828 6.05956 14.2607 5.66154C14.6385 5.26351 15.1277 5.0645 15.7281 5.0645C16.2975 5.0645 16.7608 5.27147 17.118 5.68542C17.4803 6.09406 17.6615 6.5876 17.6615 7.16607C17.6615 7.2669 17.6537 7.37038 17.6382 7.47652H14.3849ZM15.7281 5.71726C15.3658 5.71726 15.0656 5.8234 14.8275 6.03568C14.5894 6.24265 14.4418 6.52127 14.3849 6.87153H16.9782C16.9213 6.49473 16.7763 6.20816 16.5434 6.0118C16.3105 5.81544 16.0387 5.71726 15.7281 5.71726Z" fill="#00094A"/>
<path d="M18.8686 6.24265C18.8686 6.39655 18.9437 6.52127 19.0938 6.61679C19.2439 6.70701 19.4251 6.78131 19.6373 6.83969C19.8495 6.89276 20.0618 6.95644 20.274 7.03074C20.4862 7.09973 20.6674 7.22179 20.8175 7.39692C20.9676 7.56674 21.0426 7.78698 21.0426 8.05764C21.0426 8.41851 20.9055 8.70775 20.6311 8.92533C20.362 9.14292 20.0152 9.25171 19.5907 9.25171C19.2129 9.25171 18.8893 9.1668 18.6202 8.99698C18.351 8.82715 18.1595 8.60161 18.0456 8.32034L18.6279 7.97803C18.6901 8.16909 18.8065 8.32034 18.9773 8.43178C19.1481 8.54323 19.3526 8.59895 19.5907 8.59895C19.8133 8.59895 19.997 8.5565 20.142 8.47158C20.2869 8.38137 20.3594 8.24338 20.3594 8.05764C20.3594 7.90374 20.2843 7.78168 20.1342 7.69146C19.9841 7.59593 19.8029 7.52163 19.5907 7.46856C19.3785 7.41019 19.1663 7.34385 18.954 7.26955C18.7418 7.19525 18.5606 7.07319 18.4105 6.90337C18.2604 6.73355 18.1854 6.51596 18.1854 6.25061C18.1854 5.90566 18.3148 5.62173 18.5736 5.39884C18.8376 5.17595 19.1663 5.0645 19.5597 5.0645C19.8754 5.0645 20.1549 5.1388 20.3982 5.28739C20.6467 5.43068 20.833 5.63235 20.9572 5.89239L20.3904 6.21877C20.2507 5.87912 19.9738 5.7093 19.5597 5.7093C19.3681 5.7093 19.2051 5.75706 19.0705 5.85259C18.9359 5.94281 18.8686 6.07283 18.8686 6.24265Z" fill="#00094A"/>
<path d="M22.1462 4.44358C22.0167 4.44358 21.908 4.39847 21.82 4.30825C21.7321 4.21804 21.6881 4.10924 21.6881 3.98187C21.6881 3.85451 21.7321 3.74571 21.82 3.6555C21.908 3.55997 22.0167 3.51221 22.1462 3.51221C22.2704 3.51221 22.3765 3.55997 22.4645 3.6555C22.5525 3.74571 22.5965 3.85451 22.5965 3.98187C22.5965 4.10924 22.5525 4.21804 22.4645 4.30825C22.3765 4.39847 22.2704 4.44358 22.1462 4.44358ZM21.8045 9.14823V5.16799H22.48V9.14823H21.8045Z" fill="#00094A"/>
<path d="M26.7327 5.16799H27.4005V8.98106C27.4005 9.57013 27.2064 10.0265 26.8182 10.3503C26.4299 10.6793 25.9641 10.8438 25.4206 10.8438C24.9858 10.8438 24.6105 10.7589 24.2947 10.5891C23.979 10.4246 23.7409 10.1857 23.5804 9.87263L24.1705 9.53033C24.3827 9.97612 24.8046 10.199 25.4361 10.199C25.8399 10.199 26.1556 10.0902 26.3834 9.87263C26.6163 9.65504 26.7327 9.35785 26.7327 8.98106V8.41586C26.3911 8.94656 25.9046 9.21191 25.2731 9.21191C24.7192 9.21191 24.2508 9.01024 23.8677 8.60691C23.4847 8.20358 23.2931 7.71269 23.2931 7.13422C23.2931 6.55576 23.4847 6.06752 23.8677 5.6695C24.2508 5.26617 24.7192 5.0645 25.2731 5.0645C25.9097 5.0645 26.3963 5.3272 26.7327 5.85259V5.16799ZM24.3646 8.14521C24.6286 8.41586 24.9573 8.55119 25.3507 8.55119C25.7441 8.55119 26.0728 8.41586 26.3368 8.14521C26.6008 7.87455 26.7327 7.53756 26.7327 7.13422C26.7327 6.7362 26.6008 6.40186 26.3368 6.1312C26.0728 5.86055 25.7441 5.72522 25.3507 5.72522C24.9573 5.72522 24.6286 5.86055 24.3646 6.1312C24.1006 6.40186 23.9686 6.7362 23.9686 7.13422C23.9686 7.53756 24.1006 7.87455 24.3646 8.14521Z" fill="#00094A"/>
<path d="M30.3572 5.0645C30.8127 5.0645 31.1777 5.2131 31.452 5.51029C31.7263 5.80217 31.8635 6.20019 31.8635 6.70436V9.14823H31.188V6.74416C31.188 6.42043 31.1026 6.17101 30.9318 5.99588C30.761 5.81544 30.5255 5.72522 30.2252 5.72522C29.8888 5.72522 29.617 5.83401 29.41 6.0516C29.2029 6.26388 29.0994 6.59291 29.0994 7.0387V9.14823H28.4239V5.16799H29.0994V5.74114C29.3738 5.29005 29.793 5.0645 30.3572 5.0645Z" fill="#00094A"/>
<path d="M33.2801 7.47652C33.3474 7.83209 33.5053 8.10806 33.7538 8.30441C34.0074 8.50077 34.318 8.59895 34.6855 8.59895C35.1979 8.59895 35.5706 8.40525 35.8036 8.01784L36.3781 8.35218C36.0002 8.95187 35.4309 9.25171 34.67 9.25171C34.054 9.25171 33.5519 9.05535 33.1637 8.66264C32.7806 8.26461 32.5891 7.7631 32.5891 7.15811C32.5891 6.55842 32.7781 6.05956 33.1559 5.66154C33.5338 5.26351 34.0229 5.0645 34.6234 5.0645C35.1928 5.0645 35.656 5.27147 36.0132 5.68542C36.3755 6.09406 36.5567 6.5876 36.5567 7.16607C36.5567 7.2669 36.5489 7.37038 36.5334 7.47652H33.2801ZM34.6234 5.71726C34.261 5.71726 33.9608 5.8234 33.7227 6.03568C33.4846 6.24265 33.3371 6.52127 33.2801 6.87153H35.8734C35.8165 6.49473 35.6716 6.20816 35.4386 6.0118C35.2057 5.81544 34.9339 5.71726 34.6234 5.71726Z" fill="#00094A"/>
<path d="M40.54 3.57589H41.2155V9.14823H40.54V8.46362C40.2036 8.98902 39.7144 9.25171 39.0726 9.25171C38.5291 9.25171 38.0658 9.05005 37.6828 8.64672C37.2997 8.23808 37.1082 7.74187 37.1082 7.15811C37.1082 6.57434 37.2997 6.08079 37.6828 5.67746C38.0658 5.26882 38.5291 5.0645 39.0726 5.0645C39.7144 5.0645 40.2036 5.3272 40.54 5.85259V3.57589ZM39.158 8.58303C39.5514 8.58303 39.8801 8.4477 40.1441 8.17705C40.408 7.90108 40.54 7.56144 40.54 7.15811C40.54 6.75478 40.408 6.41778 40.1441 6.14713C39.8801 5.87116 39.5514 5.73318 39.158 5.73318C38.7698 5.73318 38.4437 5.87116 38.1797 6.14713C37.9157 6.41778 37.7837 6.75478 37.7837 7.15811C37.7837 7.56144 37.9157 7.90108 38.1797 8.17705C38.4437 8.4477 38.7698 8.58303 39.158 8.58303Z" fill="#00094A"/>
<path d="M47.3945 5.16799H48.07V9.14823H47.3945V8.46362C47.058 8.98902 46.5689 9.25171 45.927 9.25171C45.3835 9.25171 44.9203 9.05005 44.5372 8.64672C44.1542 8.23808 43.9627 7.74187 43.9627 7.15811C43.9627 6.57434 44.1542 6.08079 44.5372 5.67746C44.9203 5.26882 45.3835 5.0645 45.927 5.0645C46.5689 5.0645 47.058 5.3272 47.3945 5.85259V5.16799ZM46.0124 8.58303C46.4058 8.58303 46.7345 8.4477 46.9985 8.17705C47.2625 7.90108 47.3945 7.56144 47.3945 7.15811C47.3945 6.75478 47.2625 6.41778 46.9985 6.14713C46.7345 5.87116 46.4058 5.73318 46.0124 5.73318C45.6242 5.73318 45.2981 5.87116 45.0341 6.14713C44.7701 6.41778 44.6382 6.75478 44.6382 7.15811C44.6382 7.56144 44.7701 7.90108 45.0341 8.17705C45.2981 8.4477 45.6242 8.58303 46.0124 8.58303Z" fill="#00094A"/>
<path d="M51.0267 5.0645C51.4822 5.0645 51.8472 5.2131 52.1215 5.51029C52.3958 5.80217 52.533 6.20019 52.533 6.70436V9.14823H51.8575V6.74416C51.8575 6.42043 51.7721 6.17101 51.6013 5.99588C51.4305 5.81544 51.195 5.72522 50.8947 5.72522C50.5583 5.72522 50.2865 5.83401 50.0795 6.0516C49.8724 6.26388 49.7689 6.59291 49.7689 7.0387V9.14823H49.0934V5.16799H49.7689V5.74114C50.0433 5.29005 50.4625 5.0645 51.0267 5.0645Z" fill="#00094A"/>
<path d="M56.6905 3.57589H57.366V9.14823H56.6905V8.46362C56.354 8.98902 55.8648 9.25171 55.223 9.25171C54.6795 9.25171 54.2162 9.05005 53.8332 8.64672C53.4501 8.23808 53.2586 7.74187 53.2586 7.15811C53.2586 6.57434 53.4501 6.08079 53.8332 5.67746C54.2162 5.26882 54.6795 5.0645 55.223 5.0645C55.8648 5.0645 56.354 5.3272 56.6905 5.85259V3.57589ZM55.3084 8.58303C55.7018 8.58303 56.0305 8.4477 56.2945 8.17705C56.5585 7.90108 56.6905 7.56144 56.6905 7.15811C56.6905 6.75478 56.5585 6.41778 56.2945 6.14713C56.0305 5.87116 55.7018 5.73318 55.3084 5.73318C54.9202 5.73318 54.5941 5.87116 54.3301 6.14713C54.0661 6.41778 53.9341 6.75478 53.9341 7.15811C53.9341 7.56144 54.0661 7.90108 54.3301 8.17705C54.5941 8.4477 54.9202 8.58303 55.3084 8.58303Z" fill="#00094A"/>
<path d="M12.2124 13.3234H12.8879V18.8958H12.2124V18.2111C11.8759 18.7365 11.3867 18.9992 10.7449 18.9992C10.2014 18.9992 9.73812 18.7976 9.35508 18.3942C8.97204 17.9856 8.78052 17.4894 8.78052 16.9056C8.78052 16.3219 8.97204 15.8283 9.35508 15.425C9.73812 15.0163 10.2014 14.812 10.7449 14.812C11.3867 14.812 11.8759 15.0747 12.2124 15.6001V13.3234ZM10.8303 18.3306C11.2237 18.3306 11.5524 18.1952 11.8164 17.9246C12.0804 17.6486 12.2124 17.309 12.2124 16.9056C12.2124 16.5023 12.0804 16.1653 11.8164 15.8946C11.5524 15.6187 11.2237 15.4807 10.8303 15.4807C10.4421 15.4807 10.116 15.6187 9.852 15.8946C9.58801 16.1653 9.45601 16.5023 9.45601 16.9056C9.45601 17.309 9.58801 17.6486 9.852 17.9246C10.116 18.1952 10.4421 18.3306 10.8303 18.3306Z" fill="#00094A"/>
<path d="M14.3849 17.224C14.4522 17.5796 14.6101 17.8556 14.8585 18.0519C15.1122 18.2483 15.4227 18.3465 15.7903 18.3465C16.3027 18.3465 16.6754 18.1528 16.9083 17.7654L17.4829 18.0997C17.105 18.6994 16.5356 18.9992 15.7747 18.9992C15.1588 18.9992 14.6567 18.8029 14.2684 18.4102C13.8854 18.0121 13.6939 17.5106 13.6939 16.9056C13.6939 16.3059 13.8828 15.8071 14.2607 15.4091C14.6385 15.011 15.1277 14.812 15.7281 14.812C16.2975 14.812 16.7608 15.019 17.118 15.4329C17.4803 15.8416 17.6615 16.3351 17.6615 16.9136C17.6615 17.0144 17.6537 17.1179 17.6382 17.224H14.3849ZM15.7281 15.4648C15.3658 15.4648 15.0656 15.5709 14.8275 15.7832C14.5894 15.9902 14.4418 16.2688 14.3849 16.6191H16.9782C16.9213 16.2423 16.7763 15.9557 16.5434 15.7593C16.3105 15.563 16.0387 15.4648 15.7281 15.4648Z" fill="#00094A"/>
<path d="M21.0038 14.9155H21.7337L20.1808 18.8958H19.3888L17.836 14.9155H18.5658L19.7848 18.1554L21.0038 14.9155Z" fill="#00094A"/>
<path d="M22.6269 17.224C22.6942 17.5796 22.8521 17.8556 23.1006 18.0519C23.3542 18.2483 23.6648 18.3465 24.0323 18.3465C24.5447 18.3465 24.9174 18.1528 25.1503 17.7654L25.7249 18.0997C25.347 18.6994 24.7777 18.9992 24.0167 18.9992C23.4008 18.9992 22.8987 18.8029 22.5105 18.4102C22.1274 18.0121 21.9359 17.5106 21.9359 16.9056C21.9359 16.3059 22.1248 15.8071 22.5027 15.4091C22.8806 15.011 23.3697 14.812 23.9702 14.812C24.5395 14.812 25.0028 15.019 25.36 15.4329C25.7223 15.8416 25.9035 16.3351 25.9035 16.9136C25.9035 17.0144 25.8957 17.1179 25.8802 17.224H22.6269ZM23.9702 15.4648C23.6078 15.4648 23.3076 15.5709 23.0695 15.7832C22.8314 15.9902 22.6839 16.2688 22.6269 16.6191H25.2202C25.1633 16.2423 25.0183 15.9557 24.7854 15.7593C24.5525 15.563 24.2807 15.4648 23.9702 15.4648Z" fill="#00094A"/>
<path d="M26.68 18.8958V13.0846H27.3555V18.8958H26.68Z" fill="#00094A"/>
<path d="M31.6626 18.3942C31.264 18.7976 30.78 18.9992 30.2106 18.9992C29.6412 18.9992 29.1573 18.7976 28.7587 18.3942C28.3653 17.9909 28.1686 17.4947 28.1686 16.9056C28.1686 16.3166 28.3653 15.8204 28.7587 15.417C29.1573 15.0137 29.6412 14.812 30.2106 14.812C30.78 14.812 31.264 15.0137 31.6626 15.417C32.0611 15.8204 32.2604 16.3166 32.2604 16.9056C32.2604 17.4947 32.0611 17.9909 31.6626 18.3942ZM30.2106 18.3226C30.5988 18.3226 30.9249 18.1873 31.1889 17.9166C31.4529 17.646 31.5849 17.309 31.5849 16.9056C31.5849 16.5023 31.4529 16.1653 31.1889 15.8946C30.9249 15.624 30.5988 15.4887 30.2106 15.4887C29.8276 15.4887 29.5041 15.624 29.2401 15.8946C28.9761 16.1653 28.8441 16.5023 28.8441 16.9056C28.8441 17.309 28.9761 17.646 29.2401 17.9166C29.5041 18.1873 29.8276 18.3226 30.2106 18.3226Z" fill="#00094A"/>
<path d="M35.1997 14.812C35.7432 14.812 36.2065 15.0163 36.5895 15.425C36.9725 15.8283 37.1641 16.3219 37.1641 16.9056C37.1641 17.4894 36.9725 17.9856 36.5895 18.3942C36.2065 18.7976 35.7432 18.9992 35.1997 18.9992C34.5578 18.9992 34.0687 18.7365 33.7322 18.2111V20.4878H33.0567V14.9155H33.7322V15.6001C34.0687 15.0747 34.5578 14.812 35.1997 14.812ZM35.1143 18.3306C35.5025 18.3306 35.8286 18.1952 36.0926 17.9246C36.3566 17.6486 36.4886 17.309 36.4886 16.9056C36.4886 16.5023 36.3566 16.1653 36.0926 15.8946C35.8286 15.6187 35.5025 15.4807 35.1143 15.4807C34.7209 15.4807 34.3922 15.6187 34.1282 15.8946C33.8642 16.1653 33.7322 16.5023 33.7322 16.9056C33.7322 17.309 33.8642 17.6486 34.1282 17.9246C34.3922 18.1952 34.7209 18.3306 35.1143 18.3306Z" fill="#00094A"/>
<path d="M38.4437 17.224C38.511 17.5796 38.6689 17.8556 38.9174 18.0519C39.171 18.2483 39.4816 18.3465 39.8491 18.3465C40.3615 18.3465 40.7342 18.1528 40.9671 17.7654L41.5417 18.0997C41.1638 18.6994 40.5945 18.9992 39.8335 18.9992C39.2176 18.9992 38.7155 18.8029 38.3273 18.4102C37.9442 18.0121 37.7527 17.5106 37.7527 16.9056C37.7527 16.3059 37.9416 15.8071 38.3195 15.4091C38.6974 15.011 39.1865 14.812 39.787 14.812C40.3563 14.812 40.8196 15.019 41.1768 15.4329C41.5391 15.8416 41.7203 16.3351 41.7203 16.9136C41.7203 17.0144 41.7125 17.1179 41.697 17.224H38.4437ZM39.787 15.4648C39.4246 15.4648 39.1244 15.5709 38.8863 15.7832C38.6482 15.9902 38.5007 16.2688 38.4437 16.6191H41.037C40.9801 16.2423 40.8351 15.9557 40.6022 15.7593C40.3693 15.563 40.0975 15.4648 39.787 15.4648Z" fill="#00094A"/>
<path d="M45.7036 13.3234H46.3791V18.8958H45.7036V18.2111C45.3672 18.7365 44.878 18.9992 44.2362 18.9992C43.6927 18.9992 43.2294 18.7976 42.8464 18.3942C42.4633 17.9856 42.2718 17.4894 42.2718 16.9056C42.2718 16.3219 42.4633 15.8283 42.8464 15.425C43.2294 15.0163 43.6927 14.812 44.2362 14.812C44.878 14.812 45.3672 15.0747 45.7036 15.6001V13.3234ZM44.3216 18.3306C44.715 18.3306 45.0437 18.1952 45.3076 17.9246C45.5716 17.6486 45.7036 17.309 45.7036 16.9056C45.7036 16.5023 45.5716 16.1653 45.3076 15.8946C45.0437 15.6187 44.715 15.4807 44.3216 15.4807C43.9334 15.4807 43.6073 15.6187 43.3433 15.8946C43.0793 16.1653 42.9473 16.5023 42.9473 16.9056C42.9473 17.309 43.0793 17.6486 43.3433 17.9246C43.6073 18.1952 43.9334 18.3306 44.3216 18.3306Z" fill="#00094A"/>
<path d="M49.6853 14.1911C49.5559 14.1911 49.4472 14.146 49.3592 14.0558C49.2712 13.9656 49.2272 13.8568 49.2272 13.7294C49.2272 13.602 49.2712 13.4932 49.3592 13.403C49.4472 13.3075 49.5559 13.2597 49.6853 13.2597C49.8095 13.2597 49.9156 13.3075 50.0036 13.403C50.0916 13.4932 50.1356 13.602 50.1356 13.7294C50.1356 13.8568 50.0916 13.9656 50.0036 14.0558C49.9156 14.146 49.8095 14.1911 49.6853 14.1911ZM49.3436 18.8958V14.9155H50.0191V18.8958H49.3436Z" fill="#00094A"/>
<path d="M52.983 14.812C53.4385 14.812 53.8034 14.9606 54.0778 15.2578C54.3521 15.5497 54.4893 15.9477 54.4893 16.4519V18.8958H53.8138V16.4917C53.8138 16.168 53.7284 15.9185 53.5575 15.7434C53.3867 15.563 53.1512 15.4727 52.851 15.4727C52.5145 15.4727 52.2428 15.5815 52.0357 15.7991C51.8287 16.0114 51.7252 16.3404 51.7252 16.7862V18.8958H51.0497V14.9155H51.7252V15.4887C51.9995 15.0376 52.4188 14.812 52.983 14.812Z" fill="#00094A"/>
</svg>
