<svg width="20" height="20" viewBox="0 0 20 20" fill="none" xmlns="http://www.w3.org/2000/svg">
<path fill-rule="evenodd" clip-rule="evenodd" d="M2.91669 8.59821C2.91669 4.76499 6.11992 1.66675 9.99456 1.66675C13.8801 1.66675 17.0834 4.76499 17.0834 8.59821C17.0834 10.5298 16.3809 12.3231 15.2246 13.8431C13.949 15.5197 12.3768 16.9805 10.6071 18.1271C10.2021 18.3921 9.83658 18.4121 9.39206 18.1271C7.6123 16.9805 6.04009 15.5197 4.77544 13.8431C3.61834 12.3231 2.91669 10.5298 2.91669 8.59821ZM7.66188 8.81396C7.66188 10.0981 8.70974 11.1081 9.99456 11.1081C11.2802 11.1081 12.3382 10.0981 12.3382 8.81396C12.3382 7.53983 11.2802 6.48069 9.99456 6.48069C8.70974 6.48069 7.66188 7.53983 7.66188 8.81396Z" fill="#01384D"/>
</svg>
